# xmcd
#
# Track frame offsets:
#	150
#	18335
#	33662
#	45970
#	61332
#	78947
#	94895
#	110202
#	124935
#	135485
#	149922
#	162530
#	179732
#	189647
#	198792
#	213137
#	224947
#	240392
#
# Disc length: 3336 seconds
#
# Revision: 1
# Processed by: cddbd v1.5.2PL0 Copyright (c) Steve Scherf et al.
# Submitted via: audiograbber 1.83.01
#
DISCID=140d0612
DTITLE=Irish Gems - Danny Boy
DYEAR=1999
DGENRE=Irish Folk
TTITLE0=Danny Boy
TTITLE1=Bunch of Violet Blue
TTITLE2=Pretty little girl from omagh
TTITLE3=Isle of innisfree
TTITLE4=Part of me
TTITLE5=Save the last dance foe me
TTITLE6=Mary from Dungloe
TTITLE7=Three leaf shamrock from Glenore
TTITLE8=Don t let me cross over
TTITLE9=Only you
TTITLE10=Gentle Mother
TTITLE11=Give an irish girl to me
TTITLE12=Old claddagh ring
TTITLE13=Blarney Stone
TTITLE14=The wedding song
TTITLE15=My eileen is waiting for me
TTITLE16=Maggie
TTITLE17=Doonaree
EXTD=
EXTT0=
EXTT1=
EXTT2=
EXTT3=
EXTT4=
EXTT5=
EXTT6=
EXTT7=
EXTT8=
EXTT9=
EXTT10=
EXTT11=
EXTT12=
EXTT13=
EXTT14=
EXTT15=
EXTT16=
EXTT17=
PLAYORDER=
